<svg width="222" height="54" viewBox="0 0 222 54" fill="none" xmlns="http://www.w3.org/2000/svg">
<path d="M24.6101 36.9235V19.6395H13.6236V17.6465H37.597V19.6395H26.5778V36.9235H24.6101ZM28.3815 38.7532V21.4692H39.4008V15.8168H11.8199V21.4692H22.8063V38.7532H28.3815ZM11 22.286V15H40.2207L43.4018 18.3653V25.4553H32.3826V42.7393H25.3644L21.9864 39.57V25.4553H14.3779L11 22.286Z" fill="black"/>
<path d="M48.8751 17.6465H50.8428V36.9235H48.8751V17.6465ZM52.6465 15.8168H47.0713V38.7532H52.6465V15.8168ZM46.2514 39.57V15H53.4664L56.6476 18.3653V42.7393H49.6294L46.2514 39.57Z" fill="black"/>
<path d="M75.9543 34.9304C77.2224 34.9304 78.403 34.7997 79.4962 34.5384C80.6113 34.2552 81.5732 33.8196 82.3822 33.2314C83.213 32.6216 83.858 31.8374 84.3171 30.879C84.7763 29.8988 85.0058 28.7008 85.0058 27.285V17.6465H87.1047V27.285C87.1047 29.2671 86.7768 30.8899 86.1209 32.1532C85.465 33.3948 84.5795 34.375 83.4645 35.0938C82.3494 35.7908 81.0376 36.27 79.529 36.5314C78.0423 36.7928 76.4681 36.9235 74.8065 36.9235C73.8445 36.9235 72.8715 36.8799 71.8877 36.7928C70.9257 36.7057 69.9965 36.5314 69.1001 36.27C68.2037 36.0086 67.351 35.6275 66.542 35.1265C65.755 34.6037 65.0553 33.9176 64.4431 33.0681L66.6076 31.7612C67.1979 32.48 67.8539 33.0463 68.5754 33.4602C69.2968 33.874 70.0621 34.1899 70.871 34.4077C71.68 34.6255 72.5108 34.7671 73.3635 34.8324C74.2162 34.8978 75.0798 34.9304 75.9543 34.9304ZM74.8065 33.1008C73.2323 33.1008 71.7784 32.8176 70.4447 32.2513C69.1329 31.6632 68.0178 30.7156 67.0996 29.4087L61.9507 32.48C62.7596 33.9176 63.667 35.0502 64.6727 35.8779C65.6784 36.7057 66.7716 37.3373 67.9522 37.773C69.1329 38.1868 70.39 38.4591 71.7237 38.5898C73.0574 38.6987 74.4676 38.7532 75.9543 38.7532C77.8564 38.7532 79.5946 38.5462 81.1688 38.1324C82.743 37.6967 84.0985 37.0215 85.2354 36.1067C86.3942 35.1918 87.2906 34.0156 87.9246 32.578C88.5587 31.1186 88.8757 29.3543 88.8757 27.285V15.8168H83.2021V27.285C83.2021 28.5919 82.9616 29.6265 82.4806 30.3889C81.9996 31.1513 81.3655 31.7394 80.5785 32.1532C79.7914 32.5453 78.895 32.8067 77.8892 32.9374C76.8835 33.0463 75.8559 33.1008 74.8065 33.1008ZM74.8065 32.2839C75.7466 32.2839 76.6649 32.2295 77.5613 32.1206C78.4796 32.0117 79.2885 31.7938 79.9881 31.4671C80.7096 31.1186 81.289 30.6176 81.7263 29.9642C82.1636 29.2889 82.3822 28.3959 82.3822 27.285V15H89.6956L92.8767 18.3653V30.5523C92.8767 32.7522 92.5378 34.6255 91.8601 36.172C91.2042 37.7185 90.264 38.971 89.0397 39.9294C87.8372 40.9096 86.3942 41.6175 84.7107 42.0531C83.049 42.5105 81.2234 42.7393 79.2338 42.7393C78.0095 42.7393 76.8179 42.6957 75.6592 42.6086C74.5222 42.5432 73.4181 42.3798 72.3468 42.1185C71.2974 41.8571 70.2807 41.4759 69.2968 40.9749C68.3349 40.4957 67.4275 39.8314 66.5748 38.9819C65.6566 38.1542 64.8913 37.4245 64.2792 36.7928C63.6888 36.1611 63.186 35.5839 62.7706 35.0611C62.3552 34.5384 62.0053 34.0483 61.7211 33.5909C61.415 33.1334 61.1199 32.6542 60.8356 32.1532L67.2963 28.3305C67.4494 28.5701 67.6243 28.8097 67.8211 29.0493C67.996 29.2671 68.1927 29.5067 68.4114 29.7681C68.6519 30.0295 68.9252 30.28 69.2313 30.5196C70.0183 31.1295 70.8929 31.576 71.8549 31.8592C72.8388 32.1424 73.8226 32.2839 74.8065 32.2839Z" fill="black"/>
<path d="M102.52 17.6465V27.285C102.52 28.7008 102.749 29.8988 103.208 30.879C103.667 31.8374 104.301 32.6216 105.11 33.2314C105.941 33.8196 106.903 34.2552 107.996 34.5384C109.09 34.7997 110.281 34.9304 111.571 34.9304H115.179C116.447 34.9304 117.627 34.7997 118.72 34.5384C119.836 34.2552 120.798 33.8196 121.606 33.2314C122.437 32.6216 123.082 31.8374 123.541 30.879C124.022 29.8988 124.263 28.7008 124.263 27.285V17.6465H126.329V27.285C126.329 29.0493 126.045 30.5414 125.476 31.7612C124.908 32.981 124.121 33.9829 123.115 34.7671C122.131 35.5294 120.962 36.0849 119.606 36.4334C118.25 36.7601 116.775 36.9235 115.179 36.9235H111.571C109.975 36.9235 108.488 36.7601 107.111 36.4334C105.755 36.0849 104.575 35.5294 103.569 34.7671C102.585 33.9829 101.809 32.981 101.241 31.7612C100.694 30.5414 100.421 29.0493 100.421 27.285V17.6465H102.52ZM98.6169 27.285C98.6169 29.3543 98.934 31.1186 99.568 32.578C100.202 34.0156 101.088 35.1918 102.224 36.1067C103.383 37.0215 104.75 37.6967 106.324 38.1324C107.92 38.5462 109.669 38.7532 111.571 38.7532H115.179C117.081 38.7532 118.819 38.5462 120.393 38.1324C121.989 37.6967 123.356 37.0215 124.492 36.1067C125.651 35.1918 126.548 34.0156 127.182 32.578C127.816 31.1186 128.133 29.3543 128.133 27.285V15.8168H122.426V27.285C122.426 28.3959 122.23 29.3216 121.836 30.0622C121.443 30.8028 120.918 31.4018 120.262 31.8592C119.606 32.2948 118.841 32.6107 117.966 32.8067C117.092 33.0027 116.162 33.1008 115.179 33.1008H111.571C110.587 33.1008 109.658 33.0027 108.783 32.8067C107.909 32.6107 107.144 32.2839 106.488 31.8265C105.832 31.3691 105.307 30.7701 104.914 30.0295C104.542 29.2889 104.356 28.3741 104.356 27.285V15.8168H98.6169V27.285ZM97.7971 15H105.176L108.357 18.3653V30.5523C108.357 30.7919 108.357 31.0206 108.357 31.2384C108.379 31.4562 108.412 31.6632 108.456 31.8592C109.374 32.1424 110.412 32.2839 111.571 32.2839H115.179C116.031 32.2839 116.84 32.2077 117.605 32.0552C118.393 31.881 119.081 31.5978 119.672 31.2057C120.262 30.8137 120.732 30.3018 121.082 29.6701C121.432 29.0384 121.606 28.2434 121.606 27.285V15H128.953L132.134 18.3653V30.5523C132.134 32.7522 131.795 34.6255 131.117 36.172C130.439 37.7185 129.499 38.971 128.297 39.9294C127.094 40.9096 125.651 41.6175 123.968 42.0531C122.284 42.5105 120.448 42.7393 118.458 42.7393H114.851C113.736 42.7393 112.653 42.6848 111.604 42.5759C110.576 42.467 109.592 42.2818 108.652 42.0204C107.734 41.7808 106.881 41.4541 106.094 41.0403C105.307 40.6264 104.608 40.1145 103.995 39.5046C102.749 38.4373 101.722 37.4245 100.913 36.4661C100.126 35.4859 99.5024 34.5057 99.0433 33.5255C98.5841 32.5453 98.2562 31.5542 98.0594 30.5523C97.8845 29.5285 97.7971 28.4394 97.7971 27.285V15Z" fill="black"/>
<path d="M148.625 19.6395C147.335 19.6395 146.132 19.7811 145.017 20.0643C143.924 20.3257 142.973 20.7613 142.164 21.3712C141.355 21.9593 140.71 22.7435 140.229 23.7237C139.77 24.7038 139.54 25.8909 139.54 27.285C139.54 28.7008 139.77 29.8988 140.229 30.879C140.71 31.8374 141.355 32.6216 142.164 33.2314C142.973 33.8413 143.924 34.277 145.017 34.5384C146.132 34.7997 147.335 34.9304 148.625 34.9304H152.199C153.73 34.9304 155.216 34.7017 156.659 34.2443C158.124 33.7651 159.381 32.9374 160.431 31.7612L162.53 33.0681C161.918 33.9176 161.218 34.6037 160.431 35.1265C159.644 35.6275 158.802 36.0086 157.906 36.27C157.009 36.5314 156.069 36.7057 155.085 36.7928C154.123 36.8799 153.161 36.9235 152.199 36.9235H148.625C147.028 36.9235 145.542 36.7601 144.164 36.4334C142.809 36.0849 141.628 35.5294 140.622 34.7671C139.639 33.9829 138.862 32.981 138.294 31.7612C137.747 30.5414 137.474 29.0493 137.474 27.285C137.474 25.5207 137.747 24.0286 138.294 22.8088C138.862 21.589 139.639 20.5979 140.622 19.8356C141.628 19.0514 142.809 18.496 144.164 18.1693C145.542 17.8208 147.028 17.6465 148.625 17.6465H152.199C153.161 17.6465 154.123 17.6901 155.085 17.7772C156.069 17.8643 157.009 18.0386 157.906 18.3C158.802 18.5613 159.644 18.9534 160.431 19.4762C161.218 19.9772 161.918 20.6524 162.53 21.5019L160.431 22.8088C159.381 21.6326 158.124 20.8158 156.659 20.3583C155.216 19.8791 153.73 19.6395 152.199 19.6395H148.625ZM152.199 21.4692C153.773 21.4692 155.216 21.7633 156.528 22.3514C157.84 22.9177 158.955 23.8543 159.873 25.1613L165.088 22.09C164.344 20.8267 163.514 19.792 162.595 18.9861C161.677 18.1584 160.671 17.5158 159.578 17.0584C158.507 16.5792 157.348 16.2525 156.102 16.0782C154.877 15.9039 153.577 15.8168 152.199 15.8168H148.625C146.722 15.8168 144.973 16.0346 143.377 16.4703C141.803 16.8841 140.437 17.5485 139.278 18.4633C138.141 19.3782 137.245 20.5653 136.589 22.0247C135.955 23.4623 135.638 25.2157 135.638 27.285C135.638 29.3543 135.955 31.1186 136.589 32.578C137.245 34.0156 138.141 35.1918 139.278 36.1067C140.437 37.0215 141.803 37.6967 143.377 38.1324C144.973 38.5462 146.722 38.7532 148.625 38.7532H152.199C153.577 38.7532 154.877 38.666 156.102 38.4918C157.348 38.3175 158.507 38.0017 159.578 37.5443C160.671 37.0651 161.677 36.4225 162.595 35.6166C163.514 34.8106 164.344 33.7651 165.088 32.48L159.873 29.4087C158.955 30.7156 157.84 31.6632 156.528 32.2513C155.216 32.8176 153.773 33.1008 152.199 33.1008H148.625C147.641 33.1008 146.711 33.0027 145.837 32.8067C144.962 32.6107 144.197 32.2948 143.541 31.8592C142.885 31.4018 142.361 30.8028 141.967 30.0622C141.573 29.3216 141.377 28.3959 141.377 27.285C141.377 26.1959 141.573 25.2811 141.967 24.5405C142.361 23.7999 142.885 23.2009 143.541 22.7435C144.219 22.286 144.995 21.9593 145.87 21.7633C146.744 21.5672 147.663 21.4692 148.625 21.4692H152.199ZM140.557 39.1779C139.311 38.0888 138.316 37.076 137.572 36.1393C136.829 35.1809 136.25 34.2443 135.834 33.3295C135.419 32.3928 135.146 31.4344 135.014 30.4543C134.883 29.4741 134.818 28.4176 134.818 27.285C134.818 25.0632 135.157 23.1791 135.834 21.6326C136.512 20.0643 137.463 18.79 138.688 17.8099C139.912 16.8297 141.366 16.1218 143.049 15.6861C144.755 15.2287 146.613 15 148.625 15H152.199C153.445 15 154.637 15.0545 155.774 15.1634C156.933 15.2505 158.08 15.5119 159.217 15.9475C160.354 16.3831 161.513 17.0366 162.694 17.9079C163.874 18.7792 165.142 19.9881 166.498 21.5346C166.717 21.7742 166.957 22.0573 167.219 22.3841C167.482 22.7108 167.733 23.0593 167.974 23.4296C168.214 23.7999 168.455 24.1811 168.695 24.5731C168.936 24.9434 169.154 25.2919 169.351 25.6187L162.956 29.3761L160.464 26.8929C159.698 26.3919 158.9 26.0325 158.07 25.8147C157.239 25.5751 156.375 25.4553 155.479 25.4553H151.904C151.029 25.4553 150.199 25.5424 149.412 25.7167C148.625 25.8909 147.925 26.1741 147.313 26.5662C146.722 26.9583 146.252 27.481 145.902 28.1345C145.553 28.7879 145.378 29.5939 145.378 30.5523C145.378 31.075 145.421 31.5107 145.509 31.8592C145.968 32.0117 146.46 32.1206 146.985 32.1859C147.509 32.2513 148.056 32.2839 148.625 32.2839H152.199C153.642 32.2839 154.998 31.979 156.266 31.3691C157.556 30.7592 158.693 29.7463 159.677 28.3305L166.236 32.1859L169.351 35.4859C168.477 36.967 167.526 38.1759 166.498 39.1126C165.492 40.0492 164.41 40.7789 163.251 41.3016C162.092 41.8462 160.868 42.2165 159.578 42.4125C158.288 42.6303 156.922 42.7393 155.479 42.7393H151.904C150.789 42.7393 149.685 42.663 148.592 42.5105C147.52 42.3798 146.482 42.162 145.476 41.8571C144.492 41.5739 143.574 41.2036 142.721 40.7462C141.891 40.3106 141.169 39.7878 140.557 39.1779Z" fill="black"/>
<path d="M195.488 29.8335L188.568 20.0643L181.484 29.8335H195.488ZM191.946 28.0691H184.993L188.502 23.1682L191.946 28.0691ZM200.374 36.9235L196.832 31.8592H180.074C179.462 32.6869 178.861 33.5364 178.27 34.4077C177.702 35.2572 177.111 36.0958 176.499 36.9235H173.876C176.193 33.678 178.5 30.4651 180.795 27.285C183.113 24.1048 185.42 20.892 187.715 17.6465H189.289L202.834 36.9235H200.374ZM186.83 15.8168L170.432 38.7532H177.385L180.992 33.6889H195.816L199.39 38.7532H206.343L190.273 15.8168H186.83ZM193.946 18.3653L211 42.7393H202.276L198.964 39.57L197.62 37.675H184.665C184.403 38.067 184.108 38.4809 183.78 38.9165C183.474 39.3522 183.157 39.7878 182.829 40.2234C182.523 40.6809 182.217 41.1165 181.911 41.5304C181.604 41.966 181.32 42.369 181.058 42.7393H172.301L168.825 39.57L186.403 15H190.7L193.946 18.3653Z" fill="black"/>
</svg>
