<svg width="180" height="69" viewBox="0 0 180 69" fill="none" xmlns="http://www.w3.org/2000/svg">
<path d="M17.3785 62.6112V21.0639H6V19.5678H30.4152V21.0639H19.0939V62.6112H17.3785ZM13.9478 62.6112V24.0563H6V22.5601H15.6632V62.6112H13.9478ZM20.8092 62.6112V22.5601H30.4152V24.0563H22.5246V62.6112H20.8092ZM6 18.0716V16.5754H30.4152V18.0716H6Z" fill="black"/>
<path d="M40.3942 62.6112V16.5754H42.1096V62.6112H40.3942ZM33.5328 62.6112V16.5754H35.2481V62.6112H33.5328ZM36.9635 62.6112V16.5754H38.6788V62.6112H36.9635Z" fill="black"/>
<path d="M58.1052 63.1866C53.9503 63.1866 50.9484 62.2899 49.0996 60.4964C47.2509 58.7029 46.2693 55.7442 46.1549 51.6201C46.1263 50.6994 46.112 49.654 46.112 48.484C46.112 47.3139 46.1263 46.2685 46.1549 45.3478H47.8703C47.8512 45.9424 47.8369 46.609 47.8274 47.3475C47.8274 48.0859 47.8274 48.8244 47.8274 49.5629C47.8369 50.3014 47.8512 50.968 47.8703 51.5626C47.9846 55.2263 48.8328 57.8494 50.4147 59.4318C51.9967 61.0143 54.5602 61.8055 58.1052 61.8055C61.8886 61.8055 64.595 61.0191 66.2246 59.4462C67.8637 57.8637 68.6833 55.255 68.6833 51.6201V16.5754H70.3986V51.6201C70.3986 55.7442 69.4456 58.7029 67.5397 60.4964C65.6433 62.2899 62.4985 63.1866 58.1052 63.1866ZM58.1052 60.4245C55.151 60.4245 53.0164 59.7339 51.7012 58.3529C50.3861 56.9718 49.6809 54.6892 49.5856 51.5051C49.5666 50.9296 49.5523 50.2774 49.5428 49.5485C49.5428 48.8196 49.5428 48.0859 49.5428 47.3475C49.5523 46.609 49.5666 45.9424 49.5856 45.3478H51.301C51.2724 46.2109 51.2581 47.2276 51.2581 48.3976C51.2581 49.5677 51.2724 50.5843 51.301 51.4475C51.4058 54.1617 51.9824 56.1086 53.0306 57.2883C54.0884 58.4584 55.78 59.0434 58.1052 59.0434C60.6592 59.0434 62.4889 58.4728 63.5944 57.3315C64.6998 56.1806 65.2526 54.2768 65.2526 51.6201V16.5754H66.9679V51.6201C66.9679 54.7659 66.2818 57.0198 64.9095 58.3816C63.5372 59.7435 61.2691 60.4245 58.1052 60.4245ZM58.1052 57.6623C56.3518 57.6623 55.0843 57.1732 54.3029 56.1949C53.5214 55.2167 53.0926 53.615 53.0163 51.39C52.9973 50.8337 52.983 50.1911 52.9735 49.4622C52.9735 48.7333 52.9735 48.0044 52.9735 47.2755C52.983 46.5466 52.9973 45.904 53.0163 45.3478H54.7317C54.7127 45.9616 54.6984 46.6425 54.6888 47.3906C54.6888 48.1387 54.6936 48.8676 54.7031 49.5773C54.7127 50.2774 54.7222 50.8817 54.7317 51.39C54.7794 53.0396 55.0462 54.2672 55.5322 55.0728C56.0278 55.8785 56.8854 56.2813 58.1052 56.2813C59.4394 56.2813 60.3924 55.9216 60.9642 55.2023C61.5359 54.4734 61.8218 53.2793 61.8218 51.6201V16.5754H63.5372V51.6201C63.5372 53.7781 63.1131 55.327 62.265 56.2669C61.4264 57.1972 60.0398 57.6623 58.1052 57.6623Z" fill="black"/>
<path d="M88.1088 63.1866C83.6488 63.1866 80.4421 62.2899 78.4885 60.4964C76.5349 58.7029 75.5295 55.7442 75.4723 51.6201C75.4342 48.8964 75.4008 46.1102 75.3722 43.2618C75.3532 40.4133 75.3437 37.5217 75.3437 34.5869C75.3437 31.6426 75.3532 28.6694 75.3722 25.6675C75.3913 22.656 75.4247 19.6253 75.4723 16.5754H77.1877C77.1496 19.3855 77.1162 22.2484 77.0876 25.164C77.0685 28.0796 77.059 31.0144 77.059 33.9683C77.059 36.9223 77.0685 39.8762 77.0876 42.8302C77.1162 45.7842 77.1496 48.7045 77.1877 51.5914C77.2353 55.2359 78.1025 57.8494 79.7893 59.4318C81.4761 61.0143 84.2492 61.8055 88.1088 61.8055C91.9493 61.8055 94.7081 61.0143 96.3853 59.4318C98.0626 57.8494 98.925 55.2359 98.9727 51.5914C99.0108 48.695 99.0394 45.7842 99.0584 42.859C99.087 39.9242 99.1013 36.9894 99.1013 34.0546C99.1013 31.1199 99.0918 28.1947 99.0727 25.2791C99.0537 22.3539 99.0203 19.4527 98.9727 16.5754H100.688C100.745 20.4118 100.783 24.2864 100.802 28.1995C100.821 32.1125 100.821 36.0303 100.802 39.953C100.783 43.8756 100.745 47.7647 100.688 51.6201C100.631 55.7442 99.6302 58.7029 97.6862 60.4964C95.7421 62.2899 92.5496 63.1866 88.1088 63.1866ZM88.1088 60.4245C84.8686 60.4245 82.5339 59.7387 81.1044 58.3673C79.6845 56.9958 78.9507 54.7323 78.903 51.577C78.8649 48.5847 78.8316 45.6211 78.803 42.6863C78.7839 39.742 78.7744 36.8168 78.7744 33.9108C78.7744 31.0048 78.7839 28.1084 78.803 25.2215C78.8316 22.3347 78.8649 19.4527 78.903 16.5754H80.6184C80.5803 19.4623 80.5469 22.3587 80.5183 25.2647C80.4993 28.1611 80.4897 31.0719 80.4897 33.9971C80.4897 36.9127 80.4993 39.8331 80.5183 42.7583C80.5469 45.6835 80.5803 48.6134 80.6184 51.5482C80.6565 54.224 81.2521 56.1422 82.4052 57.3027C83.5678 58.4632 85.469 59.0434 88.1088 59.0434C90.7294 59.0434 92.6116 58.4632 93.7551 57.3027C94.9082 56.1422 95.5038 54.224 95.542 51.5482C95.5801 48.6518 95.6087 45.741 95.6277 42.8158C95.6563 39.8906 95.6706 36.9654 95.6706 34.0403C95.6706 31.1055 95.6611 28.1803 95.642 25.2647C95.623 22.3491 95.5896 19.4527 95.542 16.5754H97.2573C97.305 19.5102 97.3383 22.4402 97.3574 25.3654C97.3764 28.2906 97.386 31.2158 97.386 34.141C97.386 37.0661 97.3764 39.9817 97.3574 42.8877C97.3383 45.7937 97.305 48.6902 97.2573 51.577C97.2192 54.7323 96.4902 56.9958 95.0702 58.3673C93.6503 59.7387 91.3298 60.4245 88.1088 60.4245ZM88.1088 57.6623C86.0789 57.6623 84.6161 57.1876 83.7203 56.2381C82.8245 55.2886 82.3623 53.7157 82.3337 51.5194C82.2765 47.5585 82.2384 43.6358 82.2194 39.7516C82.2003 35.8577 82.2003 31.983 82.2194 28.1275C82.2384 24.272 82.2765 20.4214 82.3337 16.5754H84.0491C84.011 19.3855 83.9776 22.2484 83.949 25.164C83.93 28.07 83.9204 31 83.9204 33.9539C83.9204 36.8983 83.93 39.8427 83.949 42.787C83.9776 45.7314 84.011 48.6374 84.0491 51.5051C84.0681 53.2122 84.3922 54.435 85.0211 55.1735C85.6596 55.912 86.6888 56.2813 88.1088 56.2813C89.5192 56.2813 90.5341 55.912 91.1535 55.1735C91.7729 54.435 92.0922 53.2122 92.1113 51.5051C92.1684 47.6304 92.2065 43.7461 92.2256 39.8523C92.2447 35.9488 92.2447 32.055 92.2256 28.1707C92.2065 24.2768 92.1684 20.4118 92.1113 16.5754H93.8266C93.8742 19.5198 93.9076 22.4546 93.9267 25.3798C93.9457 28.305 93.9553 31.2254 93.9553 34.141C93.9553 37.0566 93.9457 39.9626 93.9267 42.859C93.9076 45.7554 93.8742 48.6422 93.8266 51.5194C93.798 53.7157 93.3406 55.2886 92.4543 56.2381C91.568 57.1876 90.1195 57.6623 88.1088 57.6623Z" fill="black"/>
<path d="M104.867 62.6112V61.115H114.588V62.6112H104.867ZM104.867 56.6265V55.1304H114.588V56.6265H104.867ZM104.867 59.6189V58.1227H114.588V59.6189H104.867Z" fill="black"/>
<path d="M131.382 63.1866C126.96 63.1866 123.768 62.2899 121.805 60.4964C119.851 58.7029 118.831 55.7442 118.746 51.6201C118.698 49.3279 118.66 46.9351 118.631 44.4414C118.612 41.9383 118.608 39.2864 118.617 36.4859C118.636 33.6758 118.674 30.6643 118.731 27.4514C118.808 23.2219 119.861 20.2583 121.891 18.5607C123.93 16.8536 127.094 16 131.382 16C135.728 16 138.858 16.8919 140.774 18.6758C142.699 20.4597 143.723 23.4041 143.847 27.5089C143.866 27.9789 143.876 28.4872 143.876 29.0339C143.876 29.571 143.871 30.1176 143.861 30.6739C143.852 31.2302 143.842 31.7768 143.833 32.3139C143.823 32.851 143.809 33.3593 143.79 33.8388H142.075C142.094 33.2059 142.108 32.5201 142.117 31.7816C142.136 31.0431 142.146 30.3094 142.146 29.5805C142.156 28.8421 142.151 28.1707 142.132 27.5665C142.017 23.922 141.126 21.3133 139.459 19.7404C137.791 18.1675 135.099 17.3811 131.382 17.3811C127.675 17.3811 124.94 18.1387 123.177 19.6541C121.414 21.1598 120.509 23.7781 120.461 27.5089C120.423 30.4245 120.394 33.2634 120.375 36.0255C120.356 38.7781 120.351 41.4491 120.361 44.0386C120.38 46.6186 120.413 49.1265 120.461 51.5626C120.537 55.3414 121.457 57.9932 123.22 59.5182C124.992 61.0431 127.713 61.8055 131.382 61.8055C135.194 61.8055 137.948 61.0143 139.644 59.4318C141.341 57.8494 142.246 55.2263 142.36 51.5626C142.389 50.6707 142.403 49.6349 142.403 48.4552C142.403 47.2755 142.389 46.2397 142.36 45.3478H144.076C144.104 46.2685 144.119 47.3139 144.119 48.484C144.119 49.654 144.104 50.6994 144.076 51.6201C143.961 55.7442 142.923 58.7029 140.96 60.4964C138.996 62.2899 135.804 63.1866 131.382 63.1866ZM131.382 60.4245C128.152 60.4245 125.826 59.7387 124.406 58.3673C122.986 56.9958 122.243 54.7276 122.176 51.5626C122.119 48.7141 122.081 46.0431 122.062 43.5495C122.043 41.0559 122.043 38.5239 122.062 35.9536C122.081 33.3833 122.114 30.5684 122.162 27.5089C122.21 24.344 122.953 22.0949 124.392 20.7618C125.841 19.4287 128.171 18.7621 131.382 18.7621C134.565 18.7621 136.843 19.4575 138.215 20.8481C139.587 22.2388 140.321 24.4974 140.416 27.624C140.426 27.9981 140.431 28.3913 140.431 28.8037C140.44 29.2161 140.44 29.6669 140.431 30.156C140.421 30.6451 140.412 31.1918 140.402 31.796C140.393 32.4002 140.378 33.0812 140.359 33.8388H138.644C138.672 32.7455 138.691 31.8296 138.701 31.0911C138.711 30.3526 138.715 29.7148 138.715 29.1777C138.725 28.6406 138.72 28.1323 138.701 27.6528C138.634 25.0825 138.063 23.1883 136.986 21.9703C135.909 20.7522 134.041 20.1432 131.382 20.1432C128.676 20.1432 126.76 20.733 125.636 21.9127C124.511 23.0828 123.93 24.9674 123.892 27.5665C123.854 30.6355 123.82 33.4169 123.792 35.9105C123.763 38.3945 123.754 40.8689 123.763 43.3337C123.773 45.789 123.816 48.5127 123.892 51.5051C123.958 54.1521 124.559 56.0703 125.693 57.2595C126.827 58.4488 128.723 59.0434 131.382 59.0434C133.784 59.0434 135.609 58.4967 136.857 57.4034C138.115 56.3004 138.806 54.3152 138.93 51.4475C138.949 51.0063 138.963 50.4069 138.973 49.6492C138.982 48.882 138.982 48.1051 138.973 47.3187C138.973 46.5226 138.958 45.8657 138.93 45.3478H140.645C140.664 45.8273 140.674 46.4315 140.674 47.1604C140.683 47.8893 140.688 48.6422 140.688 49.4191C140.688 50.1863 140.674 50.8817 140.645 51.5051C140.521 54.6892 139.74 56.9718 138.301 58.3529C136.862 59.7339 134.556 60.4245 131.382 60.4245ZM131.382 57.6623C129.371 57.6623 127.918 57.178 127.022 56.2093C126.136 55.2407 125.669 53.6726 125.621 51.5051C125.555 48.7333 125.512 46.1007 125.493 43.6071C125.474 41.1039 125.474 38.5575 125.493 35.968C125.512 33.3785 125.55 30.578 125.607 27.5665C125.655 25.4469 126.112 23.9124 126.979 22.9629C127.847 22.0038 129.314 21.5243 131.382 21.5243C133.298 21.5243 134.694 22.0038 135.57 22.9629C136.447 23.9124 136.919 25.5045 136.986 27.7391C137.005 28.2954 137.009 28.9332 137 29.6525C137 30.3622 136.99 31.0863 136.971 31.8248C136.962 32.5537 136.948 33.225 136.928 33.8388H135.213C135.242 33.0812 135.261 32.3427 135.27 31.6234C135.28 30.9041 135.285 30.2183 135.285 29.5662C135.294 28.914 135.289 28.305 135.27 27.7391C135.232 26.0415 134.918 24.8139 134.327 24.0563C133.736 23.289 132.754 22.9054 131.382 22.9054C129.972 22.9054 128.952 23.2698 128.323 23.9987C127.704 24.7276 127.37 25.936 127.322 27.624C127.246 30.4821 127.194 33.1915 127.165 35.7522C127.146 38.3034 127.146 40.8545 127.165 43.4056C127.194 45.9472 127.246 48.6278 127.322 51.4475C127.37 53.1738 127.704 54.4111 128.323 55.1591C128.952 55.9072 129.972 56.2813 131.382 56.2813C132.888 56.2813 133.941 55.8832 134.541 55.0872C135.142 54.2816 135.461 53.0492 135.499 51.39C135.528 50.5268 135.542 49.515 135.542 48.3545C135.542 47.1844 135.528 46.1822 135.499 45.3478H137.214C137.243 46.1822 137.257 47.1892 137.257 48.3689C137.257 49.5485 137.243 50.5556 137.214 51.39C137.148 53.5863 136.671 55.1831 135.785 56.1806C134.899 57.1684 133.431 57.6623 131.382 57.6623Z" fill="black"/>
<path d="M146.73 62.6112L153.077 16.5754H167.715L174.061 62.6112H172.317L166.228 17.9709H154.564L148.474 62.6112H146.73ZM153.649 62.6112L155.193 51.3324H165.599L167.143 62.6112H165.37L164.227 52.7135H156.565L155.421 62.6112H153.649ZM150.161 62.6112L155.593 19.3808H165.199L170.631 62.6112H168.858L167.257 49.9514H153.534L151.933 62.6112H150.161ZM153.649 48.5703H167.086L165.57 35.2631L163.712 20.7762H157.079L155.164 35.2631L153.649 48.5703ZM155.593 47.1892L156.808 35.2631L158.223 22.071H162.569L164.041 35.2631L165.199 47.1892H155.593ZM157.365 45.8081H163.426L162.454 35.2631L161.311 23.4808H159.481L158.337 35.2631L157.365 45.8081Z" fill="black"/>
</svg>
